<svg xmlns="http://www.w3.org/2000/svg" width="512" height="360" style="overflow: visible;" viewBox="0 120 512 350"
     data-svgdocument="" id="_mWFBY-ERIU41ArtsskAd4" class="fl-svgdocument" x="0" y="0">
    <path text="TECH NEWS" text-anchor="middle" font-size="100" letter-spacing="0" side="left" offset="0.5" dx="0"
          dy="0" space="preserve" href="" font-family="Orbitron" font-scale="contain"
          transform="matrix(0.7284875886520757, 0, 0, 0.6976881280187247, 258.2313218150372, 391.29119172163274)" x="0"
          y="0" fill="rgba(255, 255, 255, 0.7)" font-weight="400" data-fl-textpath="" id="_dkzY7ly4NeF5zBxjgABEq"
          data-uid="o_f3c341lgj_4"
          d="M-351.45000000000005-63.9L-351.45000000000005-72L-279.45000000000005-72L-279.45000000000005-63.9L-311.35-63.9L-311.35 0L-319.45000000000005 0L-319.45000000000005-63.9L-351.45000000000005-63.9ZM-271.75000000000006-72L-206.05000000000007-72L-206.05000000000007-63.9L-263.6500000000001-63.9L-263.6500000000001-40.1L-217.35000000000008-40.1L-217.35000000000008-31.9L-263.6500000000001-31.9L-263.6500000000001-8.1L-206.05000000000007-8.1L-206.05000000000007 0L-271.75000000000006 0L-271.75000000000006-72ZM-123.55000000000004-72L-123.55000000000004-63.9L-183.35000000000005-63.9Q-184.95000000000005-63.9 -186.10000000000005-62.75Q-187.25000000000006-61.6 -187.25000000000006-60L-187.25000000000006-60L-187.25000000000006-12Q-187.25000000000006-10.4 -186.10000000000005-9.25Q-184.95000000000005-8.1 -183.35000000000005-8.1L-183.35000000000005-8.1L-123.55000000000004-8.1L-123.55000000000004 0L-183.35000000000005 0Q-188.35000000000005 0 -191.85000000000005-3.5Q-195.35000000000005-7 -195.35000000000005-12L-195.35000000000005-12L-195.35000000000005-60Q-195.35000000000005-65 -191.85000000000005-68.5Q-188.35000000000005-72 -183.35000000000005-72L-183.35000000000005-72L-123.55000000000004-72ZM-47.45000000000006-40.1L-47.45000000000006-72L-39.25000000000006-72L-39.25000000000006 0L-47.45000000000006 0L-47.45000000000006-31.9L-104.95000000000006-31.9L-104.95000000000006 0L-113.05000000000005 0L-113.05000000000005-72L-104.95000000000006-72L-104.95000000000006-40.1L-47.45000000000006-40.1ZM 10.249999999999968-72L 63.04999999999997-9.2L 63.04999999999997-72L 71.14999999999996-72L 71.14999999999996 0L 60.04999999999997 0L 7.249999999999968-62.8L 7.249999999999968 0L-0.8500000000000316 0L-0.8500000000000316-72L 10.249999999999968-72ZM 82.54999999999997-72L 148.24999999999997-72L 148.24999999999997-63.9L 90.64999999999998-63.9L 90.64999999999998-40.1L 136.95-40.1L 136.95-31.9L 90.64999999999998-31.9L 90.64999999999998-8.1L 148.24999999999997-8.1L 148.24999999999997 0L 82.54999999999997 0L 82.54999999999997-72ZM 238.44999999999996-14.2L 259.34999999999997-72L 268.15-72L 241.94999999999996 0L 234.84999999999997 0L 212.44999999999996-61.5L 190.04999999999995 0L 183.04999999999995 0L 156.84999999999997-72L 165.44999999999996-72L 186.54999999999995-14.2L 207.54999999999995-72L 217.34999999999997-72L 238.44999999999996-14.2ZM 348.35-60L 348.35-60L 348.35-57.2L 340.25-57.2L 340.25-60Q 340.25-61.6  339.1-62.75Q 337.95-63.9  336.35-63.9L 336.35-63.9L 288.35-63.9Q 286.75-63.9  285.6-62.75Q 284.45-61.6  284.45-60L 284.45-60L 284.45-43.9Q 284.45-42.3  285.6-41.2Q 286.75-40.1  288.35-40.1L 288.35-40.1L 336.35-40.1Q 341.35-40.1  344.85-36.6Q 348.35-33.1  348.35-28.1L 348.35-28.1L 348.35-12Q 348.35-7  344.85-3.5Q 341.35 0  336.35 0L 336.35 0L 288.35 0Q 283.35 0  279.85-3.5Q 276.35-7  276.35-12L 276.35-12L 276.35-14.8L 284.45-14.8L 284.45-12Q 284.45-10.4  285.6-9.25Q 286.75-8.1  288.35-8.1L 288.35-8.1L 336.35-8.1Q 337.95-8.1  339.1-9.25Q 340.25-10.4  340.25-12L 340.25-12L 340.25-28.1Q 340.25-29.7  339.1-30.8Q 337.95-31.9  336.35-31.9L 336.35-31.9L 288.35-31.9Q 283.35-31.9  279.85-35.4Q 276.35-38.9  276.35-43.9L 276.35-43.9L 276.35-60Q 276.35-65  279.85-68.5Q 283.35-72  288.35-72L 288.35-72L 336.35-72Q 341.35-72  344.85-68.5Q 348.35-65  348.35-60Z"
          font-style="normal"></path>
    <g id="_pYv7zJ07liLqjnBc2w5rI"
       transform="matrix(1.0022141283793704, 0, 0, 1.0022141283793704, -0.9513815903771023, 24.25239164655799)"
       data-uid="o_f3c341lgj_5" stroke="none" fill="rgba(255, 255, 255, 0.7)">
        <path id="_ow4-UATCK5wGrSZp_mz1v"
              d="M90.716 58.23c0.106-0.063 0.225-0.094 0.345-0.102l-0.651-8.221l-15.451 8.898l7.379 4.248L90.716 58.23z"
              stroke="none" fill="rgba(255, 255, 255, 0.7)"
              transform="matrix(4.03521203994751, 0, 0, 4.03521203994751, 0.31736359000205994, -60.99070358276367)"
              stroke-width="1" data-uid="o_f3c341lgj_6"></path>
        <path id="__nRyec1MKjlBwNzhDwzn8" stroke="none" fill="rgba(255, 255, 255, 0.7)"
              transform="matrix(4.03521203994751, 0, 0, 4.03521203994751, -2.4572951793670654, -61.68404006958008)"
              stroke-width="1" data-type="polygon" d="M38.218 79.959L37.434 89.857L63.781 74.688L55.426 70.053Z"
              data-uid="o_f3c341lgj_7"></path>
        <path id="_tnVgO9eBL8EX3OhJNhKgl"
              d="M38.148 49.908l-0.65 8.221c0.119 0.01 0.239 0.039 0.347 0.102l8.789 5.061h0.001l44.49 26.566l-0.785-9.898   L38.148 49.908z"
              stroke="none" fill="rgba(255, 255, 255, 0.7)"
              transform="matrix(4.03521203994751, 0, 0, 4.03521203994751, -0.7609750032424927, -62.060951232910156)"
              stroke-width="1" data-uid="o_f3c341lgj_8"></path>
        <path id="_ZI_rrd8g6whnlJDVU2jEF"
              d="M99.914 63.055l7.379-4.248L91.84 49.908l-0.65 8.221c0.119 0.008 0.239 0.039 0.348 0.102L99.914 63.055z"
              stroke="none" fill="rgba(255, 255, 255, 0.7)"
              transform="matrix(4.03521203994751, 0, 0, 4.03521203994751, -0.6873213052749634, -60.9947395324707)"
              stroke-width="1" data-uid="o_f3c341lgj_9"></path>
        <path id="_kvd54WTycxtIn1b6MMGo9"
              d="M64.904 53.248l8.394 4.613l17.184-9.895c0.138-0.17 0.341-0.289 0.579-0.309c0.285-0.021 0.547 0.104 0.712 0.313   l17.581 10.121c0.014 0.008 0.025 0.02 0.037 0.027c0.026 0.018 0.05 0.033 0.074 0.053c0.02 0.016 0.039 0.035 0.059 0.055   c0.018 0.018 0.036 0.037 0.053 0.057c0.02 0.023 0.036 0.049 0.053 0.074c0.009 0.014 0.02 0.023 0.038 0.061   c0.014 0.027 0.025 0.055 0.036 0.082c0.01 0.021 0.02 0.047 0.026 0.07c0.008 0.025 0.013 0.051 0.018 0.078   c0.006 0.025 0.012 0.053 0.014 0.078c0.003 0.027 0.002 0.053 0.002 0.08c0 0.025 0.001 0.051-0.002 0.078   c-0.002 0.025-0.008 0.053-0.014 0.078c-0.005 0.027-0.01 0.053-0.018 0.078c-0.007 0.023-0.017 0.047-0.026 0.07   c-0.011 0.027-0.022 0.055-0.047 0.105c-0.005 0.01-0.014 0.016-0.02 0.023c-0.027 0.045-0.059 0.086-0.096 0.125   c-0.012 0.014-0.021 0.025-0.035 0.037c-0.046 0.043-0.096 0.084-0.158 0.119L91.537 69.777c-0.128 0.074-0.271 0.109-0.412 0.109   s-0.283-0.035-0.409-0.109L37.458 38.143L1.573 58.801l35.857 19.713l16.318-9.395l-7.517-4.17l-8.388 4.828   c-0.127 0.074-0.269 0.111-0.41 0.111s-0.284-0.037-0.411-0.111c-0.815-0.451-16.51-9.107-17.285-9.568   c-0.514-0.305-1.114-0.572-1.021-1.271c0.111-0.842 1.209-1.262 1.861-1.637c2.014-1.16 4.028-2.318 6.042-3.479   c2.295-1.322 9.075-5.225 10.17-5.855c0.138-0.17 0.341-0.289 0.579-0.309c0.285-0.021 0.547 0.104 0.713 0.313l53.053 30.545   l35.863-19.709L91.125 38.15L64.904 53.248z"
              stroke="none" fill="rgba(255, 255, 255, 0.7)"
              transform="matrix(4.03521203994751, 0, 0, 4.03521203994751, -1.0625224113464355, -59.93412780761719)"
              stroke-width="1" data-uid="o_f3c341lgj_10"></path>
        <path id="_quCRKKN64DsD_aYPtM6Pv" stroke="none" fill="rgba(255, 255, 255, 0.7)"
              transform="matrix(4.03521203994751, 0, 0, 4.03521203994751, -0.4719046354293823, -60.66849899291992)"
              stroke-width="1" data-type="polygon" d="M127 58.807L91.91 79.949L91.126 89.857L127 69.203Z"
              data-uid="o_f3c341lgj_11"></path>
        <path id="_MTwFz5raYgvUR3CDYPFF_"
              d="M21.266 58.807l7.381 4.248l8.377-4.824c0.107-0.063 0.226-0.092 0.346-0.102l-0.651-8.221L21.266 58.807z"
              stroke="none" fill="rgba(255, 255, 255, 0.7)"
              transform="matrix(4.03521203994751, 0, 0, 4.03521203994751, -2.691941976547241, -60.9947395324707)"
              stroke-width="1" data-uid="o_f3c341lgj_12"></path>
        <path id="_28xFodxhc-LWlQWK_e1Wd" stroke="none" fill="rgba(255, 255, 255, 0.7)"
              transform="matrix(3.943514585494995, 0, 0, 3.9911773204803467, 1.1770024299621582, -58.404117584228516)"
              stroke-width="1" data-type="polygon" d="M1 58.807L1 69.203L37.154 89.857L36.229 79.949Z"
              data-uid="o_f3c341lgj_13"></path>
    </g>
    <path text="think different" fill="rgba(255, 255, 255, 0.7)" space="preserve" text-anchor="middle" offset="0.5" font-scale="contain"
          font-size="48" font-family="Orbitron"
          transform="matrix(1.2545694612416949, 0, 0, 1.2545694612416949, 257.33241492629037, 461.7640361746192)"
          data-uid="o_f3c341lgj_16" data-fl-textpath=""
          d="M-162.28600000000003-27.84L-162.28600000000003-23.9L-174.33600000000004-23.9L-174.33600000000004-5.81Q-174.33600000000004-5.04 -173.78600000000003-4.49Q-173.23600000000002-3.94 -172.46600000000004-3.94L-172.46600000000004-3.94L-162.28600000000003-3.94L-162.28600000000003 0L-172.46600000000004 0Q-174.91600000000003 0 -176.59600000000003-1.7Q-178.27600000000004-3.41 -178.27600000000004-5.81L-178.27600000000004-5.81L-178.27600000000004-36.96L-174.33600000000004-36.96L-174.33600000000004-27.84L-162.28600000000003-27.84ZM-154.366-27.84L-135.746-27.84Q-133.346-27.84 -131.63600000000002-26.14Q-129.936-24.43 -129.936-22.03L-129.936-22.03L-129.936 0L-133.876 0L-133.876-22.03Q-133.876-22.8 -134.42600000000002-23.35Q-134.976-23.9 -135.746-23.9L-135.746-23.9L-152.44600000000003-23.9Q-153.216-23.9 -153.79600000000002-23.35Q-154.366-22.8 -154.366-22.03L-154.366-22.03L-154.366 0L-158.306 0L-158.306-36.96L-154.366-36.96L-154.366-27.84ZM-122.16200000000003 0L-126.09200000000004 0L-126.09200000000004-27.84L-122.16200000000003-27.84L-122.16200000000003 0ZM-126.09200000000004-33.02L-126.09200000000004-36.96L-122.16200000000003-36.96L-122.16200000000003-33.02L-126.09200000000004-33.02ZM-116.73800000000006-27.84L-94.17800000000005-27.84Q-91.77800000000006-27.84 -90.06800000000005-26.14Q-88.36800000000005-24.43 -88.36800000000005-22.03L-88.36800000000005-22.03L-88.36800000000005 0L-92.30800000000006 0L-92.30800000000006-22.03Q-92.30800000000006-22.8 -92.85800000000006-23.35Q-93.40800000000006-23.9 -94.17800000000005-23.9L-94.17800000000005-23.9L-110.87800000000006-23.9Q-111.64800000000005-23.9 -112.22800000000007-23.35Q-112.79800000000006-22.8 -112.79800000000006-22.03L-112.79800000000006-22.03L-112.79800000000006 0L-116.73800000000006 0L-116.73800000000006-27.84ZM-71.71000000000004-15.89L-60.770000000000046-27.84L-55.58000000000004-27.84L-68.21000000000004-13.92L-55.630000000000045 0L-60.770000000000046 0L-71.71000000000004-11.95L-79.39000000000004-11.95L-79.39000000000004 0L-83.33000000000004 0L-83.33000000000004-36.96L-79.39000000000004-36.96L-79.39000000000004-15.89L-71.71000000000004-15.89ZM-16.316000000000052-27.84L-16.316000000000052-36.96L-12.386000000000053-36.96L-12.386000000000053 0L-34.89600000000005 0Q-37.34600000000005 0 -39.04600000000005-1.7Q-40.75600000000005-3.41 -40.75600000000005-5.81L-40.75600000000005-5.81L-40.75600000000005-22.03Q-40.75600000000005-24.43 -39.04600000000005-26.14Q-37.34600000000005-27.84 -34.89600000000005-27.84L-34.89600000000005-27.84L-16.316000000000052-27.84ZM-34.89600000000005-3.94L-34.89600000000005-3.94L-18.19600000000005-3.94Q-17.42600000000005-3.94 -16.87600000000005-4.49Q-16.316000000000052-5.04 -16.316000000000052-5.81L-16.316000000000052-5.81L-16.316000000000052-22.03Q-16.316000000000052-22.8 -16.87600000000005-23.35Q-17.42600000000005-23.9 -18.19600000000005-23.9L-18.19600000000005-23.9L-34.89600000000005-23.9Q-35.666000000000054-23.9 -36.21600000000005-23.35Q-36.76600000000005-22.8 -36.76600000000005-22.03L-36.76600000000005-22.03L-36.76600000000005-5.81Q-36.76600000000005-5.04 -36.21600000000005-4.49Q-35.666000000000054-3.94 -34.89600000000005-3.94ZM-3.4100000000000534 0L-7.340000000000053 0L-7.340000000000053-27.84L-3.4100000000000534-27.84L-3.4100000000000534 0ZM-7.340000000000053-33.02L-7.340000000000053-36.96L-3.4100000000000534-36.96L-3.4100000000000534-33.02L-7.340000000000053-33.02ZM 16.41799999999995-33.02L 6.237999999999946-33.02Q 5.467999999999947-33.02  4.917999999999947-32.47Q 4.367999999999947-31.92  4.367999999999947-31.15L 4.367999999999947-31.15L 4.367999999999947-27.84L 16.41799999999995-27.84L 16.41799999999995-23.9L 4.367999999999947-23.9L 4.367999999999947 0L 0.42799999999994665 0L 0.42799999999994665-31.15Q 0.42799999999994665-33.6  2.1079999999999464-35.28Q 3.787999999999947-36.96  6.237999999999946-36.96L 6.237999999999946-36.96L 16.41799999999995-36.96L 16.41799999999995-33.02ZM 35.95399999999995-33.02L 25.77399999999995-33.02Q 25.003999999999948-33.02  24.45399999999995-32.47Q 23.90399999999995-31.92  23.90399999999995-31.15L 23.90399999999995-31.15L 23.90399999999995-27.84L 35.95399999999995-27.84L 35.95399999999995-23.9L 23.90399999999995-23.9L 23.90399999999995 0L 19.96399999999995 0L 19.96399999999995-31.15Q 19.96399999999995-33.6  21.64399999999995-35.28Q 23.32399999999995-36.96  25.77399999999995-36.96L 25.77399999999995-36.96L 35.95399999999995-36.96L 35.95399999999995-33.02ZM 45.21999999999995-27.84L 61.91999999999995-27.84Q 64.36999999999995-27.84  66.06999999999995-26.14Q 67.77999999999994-24.43  67.77999999999994-22.03L 67.77999999999994-22.03L 67.77999999999994-11.95L 43.339999999999954-11.95L 43.339999999999954-5.81Q 43.339999999999954-5.04  43.89999999999995-4.49Q 44.44999999999995-3.94  45.21999999999995-3.94L 45.21999999999995-3.94L 67.77999999999994-3.94L 67.77999999999994 0L 45.21999999999995 0Q 42.81999999999995 0  41.10999999999995-1.7Q 39.409999999999954-3.41  39.409999999999954-5.81L 39.409999999999954-5.81L 39.409999999999954-22.03Q 39.409999999999954-24.43  41.10999999999995-26.14Q 42.81999999999995-27.84  45.21999999999995-27.84L 45.21999999999995-27.84ZM 43.339999999999954-22.03L 43.339999999999954-15.89L 63.78999999999995-15.89L 63.78999999999995-22.03Q 63.78999999999995-22.8  63.23999999999995-23.35Q 62.689999999999955-23.9  61.91999999999995-23.9L 61.91999999999995-23.9L 45.21999999999995-23.9Q 44.44999999999995-23.9  43.89999999999995-23.35Q 43.339999999999954-22.8  43.339999999999954-22.03L 43.339999999999954-22.03ZM 78.23599999999995-27.84L 78.23599999999995-27.84L 93.88599999999995-27.84L 93.88599999999995-23.9L 78.23599999999995-23.9Q 77.47599999999996-23.9  76.91599999999995-23.35Q 76.36599999999996-22.8  76.36599999999996-22.03L 76.36599999999996-22.03L 76.36599999999996 0L 72.43599999999995 0L 72.43599999999995-22.03Q 72.43599999999995-24.43  74.13599999999995-26.14Q 75.83599999999996-27.84  78.23599999999995-27.84ZM 102.77199999999995-27.84L 119.47199999999995-27.84Q 121.92199999999994-27.84  123.62199999999994-26.14Q 125.33199999999994-24.43  125.33199999999994-22.03L 125.33199999999994-22.03L 125.33199999999994-11.95L 100.89199999999994-11.95L 100.89199999999994-5.81Q 100.89199999999994-5.04  101.45199999999994-4.49Q 102.00199999999994-3.94  102.77199999999995-3.94L 102.77199999999995-3.94L 125.33199999999994-3.94L 125.33199999999994 0L 102.77199999999995 0Q 100.37199999999994 0  98.66199999999995-1.7Q 96.96199999999995-3.41  96.96199999999995-5.81L 96.96199999999995-5.81L 96.96199999999995-22.03Q 96.96199999999995-24.43  98.66199999999995-26.14Q 100.37199999999994-27.84  102.77199999999995-27.84L 102.77199999999995-27.84ZM 100.89199999999994-22.03L 100.89199999999994-15.89L 121.34199999999994-15.89L 121.34199999999994-22.03Q 121.34199999999994-22.8  120.79199999999994-23.35Q 120.24199999999995-23.9  119.47199999999995-23.9L 119.47199999999995-23.9L 102.77199999999995-23.9Q 102.00199999999994-23.9  101.45199999999994-23.35Q 100.89199999999994-22.8  100.89199999999994-22.03L 100.89199999999994-22.03ZM 130.31799999999996-27.84L 152.87799999999996-27.84Q 155.27799999999996-27.84  156.98799999999994-26.14Q 158.68799999999996-24.43  158.68799999999996-22.03L 158.68799999999996-22.03L 158.68799999999996 0L 154.74799999999996 0L 154.74799999999996-22.03Q 154.74799999999996-22.8  154.19799999999995-23.35Q 153.64799999999997-23.9  152.87799999999996-23.9L 152.87799999999996-23.9L 136.17799999999994-23.9Q 135.40799999999996-23.9  134.82799999999995-23.35Q 134.25799999999995-22.8  134.25799999999995-22.03L 134.25799999999995-22.03L 134.25799999999995 0L 130.31799999999996 0L 130.31799999999996-27.84ZM 179.66599999999997-27.84L 179.66599999999997-23.9L 167.61599999999996-23.9L 167.61599999999996-5.81Q 167.61599999999996-5.04  168.16599999999997-4.49Q 168.71599999999998-3.94  169.48599999999996-3.94L 169.48599999999996-3.94L 179.66599999999997-3.94L 179.66599999999997 0L 169.48599999999996 0Q 167.03599999999997 0  165.35599999999997-1.7Q 163.67599999999996-3.41  163.67599999999996-5.81L 163.67599999999996-5.81L 163.67599999999996-36.96L 167.61599999999996-36.96L 167.61599999999996-27.84L 179.66599999999997-27.84Z"
          font-weight="400" font-style="normal"></path>
</svg>
